<svg xmlns="http://www.w3.org/2000/svg" width="625.645" height="417.155" viewBox="0 0 625.645 417.155"><g transform="translate(0 0.096)"><path d="M85.4,405.79H96.832l5.437-44.1-16.873,0Z" fill="#ffb8b8"/><path d="M370.128,643.993h35.93v13.882H384.01a13.882,13.882,0,0,1-13.882-13.882Z" transform="translate(489.067 1060.362) rotate(179.995)" fill="#2f2e41"/><path d="M177.4,405.79h11.432l5.437-44.1-16.873,0Z" fill="#ffb8b8"/><path d="M462.128,643.993h35.93v13.882H476.01a13.882,13.882,0,0,1-13.882-13.882Z" transform="translate(673.067 1060.354) rotate(179.995)" fill="#2f2e41"/><path d="M370.1,631.02a4.493,4.493,0,0,1-4.415-3.634l-7.341-92.245c-7.9-78.117,5.624-105.637,5.762-105.906l.148-.291.325.019,63.453,3.652,13.469,44.06,35.6,47.838a43.331,43.331,0,0,1,8.521,26.287l-.9,69.748a4.526,4.526,0,0,1-4.187,4.431l-18.587,1.293a4.485,4.485,0,0,1-4.787-4.008l-4.605-75.725a.39.39,0,0,0-.107-.209l-52.805-49.216a1.5,1.5,0,0,0-2.5.493L391.831,625.8a4.446,4.446,0,0,1-1.1,3.382,4.51,4.51,0,0,1-3.292,1.522l-17.247.314Z" transform="translate(-287.178 -241.47)" fill="#2f2e41"/><circle cx="32.041" cy="32.041" r="32.041" transform="translate(68.682 51.463) rotate(-28.663)" fill="#2f2e41"/><path d="M536.976,368.575a9.377,9.377,0,0,0-13.457,5.064l-21.394,1.2-2.442,13.179,30.189-2.118a9.428,9.428,0,0,0,7.1-17.324Z" transform="translate(-287.178 -241.47)" fill="#ffb8b8"/><path d="M360.189,477.317a9.377,9.377,0,0,0-5.948-13.09L351.62,442.96,338.307,441.4l4.123,29.981a9.428,9.428,0,0,0,17.758,5.936Z" transform="translate(-287.178 -241.47)" fill="#ffb8b8"/><circle cx="24.561" cy="24.561" r="24.561" transform="translate(86.203 49.457)" fill="#ffb8b8"/><path d="M402.785,441.294c-13.06,0-24-1.057-34.858-4.937-4.468-1.6-4.946-3.578-5.574-6.055-.986-3.888-1.527-49.866,3.565-65.125a22.9,22.9,0,0,1,18.973-15.428c4.848-.571,19.35-2.621,27.564-3.792a15.518,15.518,0,0,1,11.446,2.8c2.177,1.635,3.307,3.391,3.36,5.219l2.232,77.739a8.664,8.664,0,0,1-8.09,8.926C416.383,440.984,409.86,441.294,402.785,441.294Z" transform="translate(-287.178 -241.47)" fill="#fff"/><path d="M337.82,460.333a4.5,4.5,0,0,1-4.5-4.674L334.1,420a25.39,25.39,0,0,1,3.817-12.436l30.266-48.549a10.529,10.529,0,0,1,8.933-4.936,10.414,10.414,0,0,1,8.895,5v0a10.5,10.5,0,0,1,.247,10.53l-29.358,53.356,2.021,32.748a4.5,4.5,0,0,1-4.49,4.581l-16.607.032Z" transform="translate(-287.178 -241.47)" fill="#fff"/><path d="M517.187,393.327a4.455,4.455,0,0,1-3.185,1.5l-35.631,1.89a25.384,25.384,0,0,1-12.677-2.877l-50.677-26.55a10.48,10.48,0,0,1-1.268-17.784l.292.405-.292-.405a10.5,10.5,0,0,1,10.482-1.034l55.4,25.285,32.529-4.467a4.5,4.5,0,0,1,4.879,4.137l1.274,16.558q.01.124.012.248a4.457,4.457,0,0,1-1.142,3.095Z" transform="translate(-287.178 -241.47)" fill="#fff"/><path d="M92.571,70.539,86.2,53.332l28.652-8.293,20.479,6.293V70.539Z" fill="#2f2e41"/><path d="M409.868,273.217A34.907,34.907,0,0,0,348.141,254.1c-6.024,7.321-8.807,16.739-10.844,26s-3.512,18.762-7.467,27.378-10.929,16.444-20.136,18.705-20.389-2.831-22.517-12.07a46.845,46.845,0,0,0,15.9,32.751c7.977,6.918,21,4.472,28.854-2.587s11.74-17.417,15.1-27.427,6.678-20.445,13.81-28.231,27.347-16.061,36.508-10.81C404.533,281.93,407.111,279.312,409.868,273.217Z" transform="translate(-287.178 -241.47)" fill="#2f2e41"/><path d="M896.322,478.03h-348a16.519,16.519,0,0,1-16.5-16.5v-177a16.519,16.519,0,0,1,16.5-16.5h348a16.519,16.519,0,0,1,16.5,16.5v177a16.519,16.519,0,0,1-16.5,16.5Z" transform="translate(-287.178 -241.47)" fill="#e6e6e6"/><path d="M892.322,466.03h-340a8.51,8.51,0,0,1-8.5-8.5v-169a8.509,8.509,0,0,1,8.5-8.5h340a8.51,8.51,0,0,1,8.5,8.5v169a8.51,8.51,0,0,1-8.5,8.5Z" transform="translate(-287.178 -241.47)" fill="#fff"/><path d="M855.323,441.53h-266a8,8,0,0,1,0-16h266a8,8,0,0,1,0,16Z" transform="translate(-287.178 -241.47)" fill="#e6e6e6"/><path d="M855.323,407.53h-266a8,8,0,0,1,0-16h266a8,8,0,0,1,0,16Z" transform="translate(-287.178 -241.47)" fill="#e6e6e6"/><path d="M855.618,363.53h-135a8,8,0,0,1,0-16h135a8,8,0,0,1,0,16Z" transform="translate(-287.178 -241.47)" fill="#ccc"/><path d="M799.618,329.53h-79a8,8,0,0,1,0-16h79a8,8,0,0,1,0,16Z" transform="translate(-287.178 -241.47)" fill="#ccc"/><path d="M537.5,658.53h-198a1,1,0,0,1,0-2h198a1,1,0,0,1,0,2Z" transform="translate(-287.178 -241.47)" fill="#ccc"/><g transform="translate(371.5 43.204)"><path d="M-36.8,46.3c.5-.7,1-1.5,1.6-2.3,2.5-3.6,5.1-7.2,7.6-10.8.8-1.2,1.6-2.3,2.4-3.5a.713.713,0,0,1,.6-.3H-6.8c.4,0,.5.1.5.5V41.2c0,.4-.1.5-.5.5h-3.4V69.1h3.3c.4,0,.5.1.5.5V80.9c0,.4-.1.5-.5.5H-22.3c-.5,0-.5-.1-.5-.6V67.9H-35a1.05,1.05,0,0,1-.9-.5c-.4-.6-.8-1.1-1.2-1.7a21.414,21.414,0,0,0-1.3,1.9c-2.2,3.1-4.4,6.3-6.6,9.4-.9,1.4-1.9,2.7-2.8,4-.2.2-.3.3-.5.3H-60.6c-.2,0-.4,0-.5-.2a.44.44,0,0,1,.1-.5c2.7-3.8,5.4-7.7,8.1-11.5,3-4.2,6-8.5,9-12.8.1-.1.1-.1.1-.2-2.6-3.7-5.3-7.5-7.9-11.2h-.1V67.1a.736.736,0,0,1-.8.8H-67.9c-.6,0-.8-.3-.8-.8V55.4a.736.736,0,0,1,.8-.8h2.8V28.5h-2.8a.8.8,0,0,1-.9-.9V16c0-.6.3-.8.9-.8h15.2c.6,0,.9.3.9.8V38.1l.2-.2c2.5-3.6,5-7.2,7.5-10.7,2.7-3.9,5.4-7.8,8.2-11.7a.909.909,0,0,1,.8-.4H-23a.909.909,0,0,1,.8.4,1.044,1.044,0,0,1-.1,1.1c-2.7,3.8-5.3,7.6-8,11.4-2.9,4.2-5.9,8.4-8.8,12.6a4.7,4.7,0,0,0-.6.9.188.188,0,0,0,0,.3c1,1.5,2,2.9,3,4.3Zm14-.7c-.1.1-.1.2-.2.2-2.3,3.3-4.7,6.6-7,9.9a.187.187,0,0,0,0,.3c2.4,3.4,4.7,6.7,7,10,.1.1.1.1.1.2l.1-.1Z" fill="#007aff"/><path d="M-22.9,15.3a.909.909,0,0,1,.8.4,1.02,1.02,0,0,1-.2.9c-2.7,3.8-5.3,7.6-8,11.4-2.9,4.2-5.9,8.4-8.8,12.6a4.7,4.7,0,0,0-.6.9.188.188,0,0,0,0,.3c1,1.5,2,2.9,3,4.3l-.1.2c.5-.7,1-1.5,1.6-2.3,2.5-3.6,5.1-7.2,7.6-10.8.8-1.2,1.6-2.3,2.4-3.5a.713.713,0,0,1,.6-.3H-6.8c.4,0,.5.1.5.5V41.2c0,.4-.1.5-.5.5h-3.4V69.1h3.3c.4,0,.5.1.5.5V80.9c0,.4-.1.5-.5.5H-22.3c-.5,0-.5-.1-.5-.6V67.9H-35a1.05,1.05,0,0,1-.9-.5c-.4-.6-.8-1.1-1.2-1.7a21.414,21.414,0,0,0-1.3,1.9c-2.2,3.1-4.4,6.3-6.6,9.4-.9,1.4-1.9,2.7-2.8,4-.2.2-.3.3-.5.3H-60.6c-.2,0-.4,0-.5-.2a.44.44,0,0,1,.1-.5c2.7-3.8,5.4-7.7,8.1-11.5,3-4.2,6-8.5,9-12.8.1-.1.1-.1.1-.2-2.6-3.7-5.3-7.5-7.9-11.2h-.1V67.1a.736.736,0,0,1-.8.8H-67.9c-.6,0-.8-.3-.8-.8V55.4a.736.736,0,0,1,.8-.8h2.8V28.5h-2.8a.8.8,0,0,1-.9-.9V16c0-.6.3-.8.9-.8h15.2c.6,0,.9.3.9.8V38.1l.2-.2c2.5-3.6,5-7.2,7.5-10.7,2.7-3.9,5.4-7.8,8.2-11.7a.909.909,0,0,1,.8-.4c4.1.2,8.1.2,12.2.2m.1,51h0c.1-6.9.1-13.8.1-20.6-.1.1-.1.2-.2.2-2.3,3.3-4.7,6.6-7,9.9a.187.187,0,0,0,0,.3c2.4,3.4,4.7,6.7,7,10,.1.1.1.1.1.2m-.1-54.6H-35.1a4.44,4.44,0,0,0-3.8,2c-1.3,1.9-2.7,3.9-4,5.9-1.4,1.9-2.7,3.9-4.1,5.8a13.028,13.028,0,0,0-1,1.5V16.2a4.386,4.386,0,0,0-4.6-4.5H-67.9a4.444,4.444,0,0,0-4.6,4.5V27.8a4.366,4.366,0,0,0,3.7,4.5V51.2a4.452,4.452,0,0,0-3.7,4.5V67.4A4.361,4.361,0,0,0-68,71.9h8.8a8.342,8.342,0,0,0-.8,1.2c-1.3,1.9-2.7,3.8-4,5.8a.1.1,0,0,1-.1.1,4,4,0,0,0-.3,4.2,4.024,4.024,0,0,0,3.8,2.3h12.3a4.4,4.4,0,0,0,3.5-1.7l.1-.1c.9-1.4,1.9-2.7,2.9-4.1l5.5-7.9a4.973,4.973,0,0,0,1.6.3h8.5v9A3.989,3.989,0,0,0-22,85.2H-6.7A4.1,4.1,0,0,0-2.5,81V69.8a3.95,3.95,0,0,0-3.9-4.1V45.5a4.037,4.037,0,0,0,3.9-4.2V30a4.1,4.1,0,0,0-4.2-4.2H-24.2c1.7-2.4,3.4-4.8,5-7.2a.52.52,0,0,0,.2-.4,4.473,4.473,0,0,0,.1-4.2c0-.1-.1-.1-.1-.2a4.577,4.577,0,0,0-3.9-2.1Zm-4.4,41.9Z" fill="#fff"/></g></g></svg>