<svg xmlns="http://www.w3.org/2000/svg" width="586.123" height="435" viewBox="0 0 586.123 435"><path d="M899.673,655.431a20.575,20.575,0,0,0,0,41.149h0a20.575,20.575,0,0,0,0-41.149Z" transform="translate(-348.225 -262.882)" fill="#02b894"/><path d="M899.561,686.427a2.488,2.488,0,0,1-1.5-.5l-.027-.02-5.646-4.328a2.512,2.512,0,0,1,3.053-3.991l3.657,2.81,8.642-11.3a2.5,2.5,0,0,1,3.516-.465h0l-.054.075.055-.075a2.52,2.52,0,0,1,.464,3.525l-10.165,13.283a2.508,2.508,0,0,1-2,.981Z" transform="translate(-350.061 -264.758)" fill="#fff"/><path d="M592.258,492.794h-9.721l-4.622-37.574,14.346,0Z" transform="translate(-85.512 -67.324)" fill="#ffb8b8"/><path d="M573.107,496.048h18.747v11.829H561.3a11.816,11.816,0,0,1,11.8-11.829Z" transform="translate(-83.025 -73.363)" fill="#2f2e41"/><path d="M546.758,492.794h-9.721l-4.622-37.574,14.346,0Z" transform="translate(-78.907 -67.324)" fill="#ffb8b8"/><path d="M527.607,496.048h18.747v11.829H515.8a11.816,11.816,0,0,1,11.8-11.829Z" transform="translate(-76.423 -73.363)" fill="#2f2e41"/><path d="M859.16,535.6a8,8,0,0,1,1.68-12.136l-3.011-18.008,10.474-4.5,3.9,25.491A8.021,8.021,0,0,1,859.16,535.6Z" transform="translate(-344.925 -240.036)" fill="#ffb8b8"/><path d="M760.791,525.437a8,8,0,0,0,.343-12.247l5.938-17.262-9.588-6.175-8.044,24.5a8.025,8.025,0,0,0,11.35,11.188Z" transform="translate(-328.819 -238.379)" fill="#ffb8b8"/><ellipse cx="20.884" cy="20.929" rx="20.884" ry="20.929" transform="translate(461.134 118.033)" fill="#ffb8b8"/><path d="M760.58,498.854a3.821,3.821,0,0,1-1.059-.15l-6.087-1.751a3.842,3.842,0,0,1-2.625-4.73l12.562-44.448,17.518-43.1c1.742-4.284,5.381-7.094,9.5-7.332a9.73,9.73,0,0,1,9.165,5.349h0a13.336,13.336,0,0,1,.3,11.734l-19.912,43.637-15.829,38.416A3.824,3.824,0,0,1,760.58,498.854Z" transform="translate(-329.206 -224.711)" fill="#fff"/><path d="M829.2,369.967l-11.6.207a7.728,7.728,0,0,1-7.564-9.876,18.031,18.031,0,0,0,.557-2.567,13,13,0,0,0,.076-2.858,4.209,4.209,0,0,0-8.124-1.2h0c-1.951.028-6.108-.61-8.059-.582-4.143-10.643,4.885-24.569,14.6-29.8,9.907-5.332,22.767.093,26.565,11.207,5.271.095,9.553,5.3,10.232,11.168s-1.728,11.987-5.411,16.481S831.956,369.918,829.2,369.967Z" transform="translate(-335.398 -213.455)" fill="#2f2e41"/><path d="M789.212,664.179a3.842,3.842,0,0,1-3.793-3.417L781.113,515.7l54.239,3.869.042.349c12.257,102.817,8.067,138.409,8.023,138.756a3.827,3.827,0,0,1-4.316,3.581l-11.986.288a3.829,3.829,0,0,1-3.392-3.661l-11.2-105.064a1.2,1.2,0,0,0-1.247-.9,1.244,1.244,0,0,0-1.224,1l-4.327,105.409a3.815,3.815,0,0,1-3.436,3.98l-12.7.846a3.788,3.788,0,0,1-.38.019Z" transform="translate(-333.551 -242.217)" fill="#2f2e41"/><path d="M811.267,514.453c-.324,0-.648-.005-.974-.015-15.6-.471-27.8-12.3-31.166-15.908a3.821,3.821,0,0,1-.919-3.491l9-38.144-2.387-33.161a32.736,32.736,0,0,1,8.933-25.251,26.9,26.9,0,0,1,20.736-8.407c15.182.726,27.16,14.325,27.268,30.959.168,25.763-.589,27.533-.837,28.115-7.577,17.721-3.439,42.6-1.99,49.8a3.853,3.853,0,0,1-1.137,3.568C829.458,510.44,820.539,514.453,811.267,514.453Z" transform="translate(-333.1 -223.634)" fill="#fff"/><path d="M858.609,506.386a3.825,3.825,0,0,1-3.725-2.977L845.6,462.885l-12.44-46.318a13.333,13.333,0,0,1,2.234-11.523,9.73,9.73,0,0,1,9.92-3.758c4.021.917,7.147,4.291,8.159,8.8l10.165,45.357,5.07,45.963a3.84,3.84,0,0,1-3.37,4.231l-6.292.719A3.8,3.8,0,0,1,858.609,506.386Z" transform="translate(-341.273 -225.262)" fill="#fff"/><path d="M505.072,239.06H278.041a22.155,22.155,0,0,1,0-44.309H505.072a22.155,22.155,0,0,1,0,44.31Z" transform="translate(-255.933 -194.75)" fill="#e6e6e6"/><path d="M279.313,203.25a14.912,14.912,0,0,0,0,29.824H506.345a14.912,14.912,0,0,0,0-29.824Z" transform="translate(-257.206 -196.007)" fill="#fff"/><path d="M639.673,196.431a20.575,20.575,0,0,0,0,41.149h0a20.575,20.575,0,0,0,0-41.149Z" transform="translate(-309.736 -194.999)" fill="#00b894"/><path d="M639.561,227.427a2.488,2.488,0,0,1-1.5-.5l-.027-.02-5.646-4.328a2.512,2.512,0,0,1,3.053-3.991l3.657,2.81,8.642-11.3a2.5,2.5,0,0,1,3.516-.465h0l-.054.075.055-.075a2.52,2.52,0,0,1,.464,3.525l-10.165,13.283a2.507,2.507,0,0,1-2,.981Z" transform="translate(-311.574 -196.875)" fill="#fff"/><path d="M505.072,327.06H278.041a22.155,22.155,0,0,1,0-44.31H505.072a22.155,22.155,0,0,1,0,44.31Z" transform="translate(-255.933 -207.765)" fill="#e6e6e6"/><path d="M279.313,291.25a14.912,14.912,0,0,0,0,29.824H506.345a14.912,14.912,0,0,0,0-29.824Z" transform="translate(-257.206 -209.022)" fill="#fff"/><path d="M639.673,284.431a20.575,20.575,0,0,0,0,41.149h0a20.575,20.575,0,0,0,0-41.149Z" transform="translate(-309.736 -208.013)" fill="#00b894"/><path d="M639.561,315.427a2.488,2.488,0,0,1-1.5-.5l-.027-.02-5.646-4.328a2.512,2.512,0,0,1,3.053-3.991l3.657,2.81,8.642-11.3a2.5,2.5,0,0,1,3.516-.465h0l-.054.075.055-.075a2.52,2.52,0,0,1,.464,3.525l-10.165,13.283a2.507,2.507,0,0,1-2,.981Z" transform="translate(-311.574 -209.889)" fill="#fff"/><path d="M505.072,415.06H278.041a22.155,22.155,0,0,1,0-44.309H505.072a22.155,22.155,0,0,1,0,44.31Z" transform="translate(-255.933 -220.779)" fill="#e6e6e6"/><path d="M279.313,379.25a14.912,14.912,0,0,0,0,29.824H506.345a14.912,14.912,0,0,0,0-29.824Z" transform="translate(-257.206 -222.036)" fill="#fff"/><path d="M639.673,372.431a20.575,20.575,0,0,0,0,41.149h0a20.575,20.575,0,0,0,0-41.149Z" transform="translate(-309.736 -221.028)" fill="#e6e6e6"/><path d="M911.631,704.954H733.917a.852.852,0,0,1,0-1.7H911.631a.852.852,0,0,1,0,1.7Z" transform="translate(-326.358 -269.954)" fill="#ccc"/></svg>